<svg width="116" height="142" viewBox="0 0 116 142" fill="none" xmlns="http://www.w3.org/2000/svg">
<path d="M0 75.6448C0 67.1513 3.19516 59.9117 9.58548 53.9258C16.0567 47.8591 24.0648 44.8257 33.6098 44.8257C43.1549 44.8257 50.9203 47.3333 56.9062 52.3485C62.9729 57.2828 66.0063 65.0482 66.0063 75.6448C66.0063 84.1383 62.7707 91.4184 56.2995 97.4851C49.9092 103.471 41.9415 106.464 32.3965 106.464C22.8514 106.464 15.0456 103.997 8.9788 99.0625C2.99293 94.0473 0 86.2414 0 75.6448ZM9.70681 75.6448C9.70681 85.8369 11.8504 93.3597 16.1376 98.2131C20.4247 103.067 25.9253 105.493 32.6391 105.493C39.353 105.493 44.9749 102.581 49.5047 96.7571C54.0346 90.933 56.2995 83.8956 56.2995 75.6448C56.2995 65.4527 54.1559 57.9299 49.8687 53.0765C45.5816 48.2231 40.081 45.7964 33.3672 45.7964C26.6533 45.7964 21.0314 48.7084 16.5016 54.5325C11.9717 60.3566 9.70681 67.394 9.70681 75.6448Z" fill="white"/>
<path d="M81.522 142C70.3996 142 63.3849 139.093 60.4779 133.279C59.846 132.015 59.53 130.878 59.53 129.866V0H72.801V128.539C72.801 132.205 73.4962 135.049 74.8865 137.071C76.4032 138.967 77.9199 139.978 79.4366 140.104L81.522 140.483H87.3992V142H81.522Z" fill="black"/>
<path d="M103.726 84.6236C102.756 86.565 100.976 88.4254 98.3877 90.205C95.7992 91.9037 91.9974 92.753 86.9822 92.753C82.0479 92.753 77.1945 90.933 72.422 87.293C67.7303 83.6529 65.3845 78.2333 65.3845 71.0341C65.3845 63.8349 67.6494 57.6468 72.1793 52.4698C76.7091 47.2928 83.2208 44.7043 91.7142 44.7043C107.245 44.7043 115.011 54.2089 115.011 73.2181C115.011 82.116 112.705 90.2455 108.094 97.6064C102.837 106.1 94.9903 111.964 84.5555 115.2C78.8123 117.061 72.3411 117.991 65.1418 117.991L65.2632 117.141C79.5807 117.141 90.0155 112.531 96.5676 103.309C100.127 98.294 102.513 92.0655 103.726 84.6236ZM104.333 81.5902C105.061 76.575 105.425 71.9643 105.425 67.758C105.425 60.6397 104.05 55.1796 101.3 51.3778C98.6303 47.5759 95.1116 45.675 90.7436 45.675C86.3755 45.675 82.6545 48.1017 79.5807 52.9551C76.5878 57.8085 75.0913 63.8753 75.0913 71.1554C75.0913 78.3546 76.4665 83.6125 79.2167 86.929C82.0479 90.1646 85.4453 91.7824 89.4089 91.7824C92.0782 91.7824 94.6263 91.0139 97.053 89.477C99.5606 87.9401 101.381 86.4032 102.513 84.8663C103.726 83.2485 104.333 82.1565 104.333 81.5902Z" fill="white"/>
</svg>
