<svg width="398" height="474" viewBox="0 0 398 474" fill="none" xmlns="http://www.w3.org/2000/svg">
<path d="M196.934 327.291L196.935 327.29C219.162 306.452 230.376 281.291 230.376 251.984C230.376 216.04 220.069 188.999 198.791 171.681C178.093 154.348 151.377 145.821 118.959 145.821C86.3486 145.821 58.795 156.215 36.5379 177.08C14.5691 197.659 3.5 222.69 3.5 251.984C3.5 287.927 13.6711 315.087 34.6619 332.674L34.6814 332.691L34.7012 332.707C55.6634 349.756 82.5004 358.147 114.917 358.147C147.515 358.147 174.938 347.896 196.934 327.291ZM63.3797 324.845C49.9104 309.597 42.8348 285.548 42.8348 251.984C42.8348 225.18 50.1765 202.518 64.7318 183.804C79.2336 165.159 96.9829 156.054 118.151 156.054C139.554 156.054 156.907 163.738 170.497 179.122C183.966 194.371 191.042 218.419 191.042 251.984C191.042 278.787 183.7 301.449 169.145 320.163C154.643 338.808 136.894 347.913 115.726 347.913C94.3223 347.913 76.9692 340.229 63.3797 324.845Z" fill="#D4AF37" stroke="#D4AF37" stroke-width="7"/>
<path d="M278.562 473.022C241.511 473.022 218.144 463.339 208.461 443.972C206.356 439.761 205.303 435.972 205.303 432.604V0H249.511V428.183C249.511 440.393 251.826 449.866 256.458 456.602C261.51 462.918 266.562 466.286 271.615 466.707L278.562 467.97H298.139V473.022H278.562Z" fill="black"/>
<path d="M336.726 303.37C340.26 300.94 343.405 298.434 346.137 295.847C341.738 313.856 334.95 329.256 325.827 342.11C304.831 371.661 271.297 386.715 224.401 386.715H221.365L220.936 389.72L220.532 392.549L219.961 396.544H223.997C248.268 396.544 270.19 393.409 289.724 387.084C325.195 376.081 352.051 356.061 370.049 326.991C385.762 301.902 393.616 274.177 393.616 243.9C393.616 211.852 387.085 187.166 373.426 170.448C359.657 153.595 339.128 145.417 312.513 145.417C283.468 145.417 260.712 154.301 244.805 172.48C229.13 190.394 221.305 211.838 221.305 236.625C221.305 261.432 229.436 280.62 246.102 293.551L246.114 293.559L246.125 293.568C262.497 306.056 279.392 312.474 296.75 312.474C313.754 312.474 327.217 309.611 336.663 303.412L336.695 303.391L336.726 303.37ZM351.085 271.286L351.048 271.536V271.789C351.048 271.786 351.047 271.789 351.045 271.8C351.024 271.899 350.87 272.618 349.973 274.232C349.072 275.853 347.661 277.967 345.685 280.602L345.677 280.613L345.668 280.625C342.268 285.239 336.623 290.079 328.468 295.076L328.446 295.09L328.424 295.104C320.856 299.897 313.012 302.24 304.833 302.24C292.746 302.24 282.37 297.371 273.547 287.303C265.175 277.182 260.64 260.671 260.64 237.029C260.64 213.258 265.523 193.735 275.063 178.256C284.885 162.755 296.304 155.65 309.28 155.65C322.607 155.65 333.293 161.357 341.579 173.158L341.593 173.178L341.608 173.198C350.166 185.029 354.686 202.377 354.686 225.712C354.686 239.525 353.49 254.714 351.085 271.286Z" fill="#D4AF37" stroke="#D4AF37" stroke-width="7"/>
</svg>
