<svg width="386" height="474" viewBox="0 0 386 474" fill="none" xmlns="http://www.w3.org/2000/svg">
<path d="M188.883 325.102L188.884 325.102C210.536 304.803 221.376 280.422 221.376 251.984C221.376 216.593 211.243 190.557 190.881 173.995C170.833 157.199 144.844 148.821 112.959 148.821C81.0469 148.821 54.2454 158.967 32.5888 179.27C11.2043 199.301 0.5 223.548 0.5 251.984C0.5 287.375 10.4986 313.542 30.5885 330.375L30.5942 330.379C50.911 346.904 77.0327 355.147 108.917 355.147C140.828 355.147 167.495 345.137 188.883 325.102ZM55.1313 326.831C40.9661 310.795 33.8348 285.88 33.8348 251.984C33.8348 224.596 41.3505 201.265 56.3638 181.963C71.3694 162.67 89.9569 153.054 112.151 153.054C134.378 153.054 152.563 161.081 166.745 177.136C180.91 193.172 188.042 218.087 188.042 251.984C188.042 279.371 180.526 302.702 165.513 322.005C150.507 341.298 131.92 350.913 109.726 350.913C87.4981 350.913 69.3137 342.887 55.1313 326.831Z" fill="#D4AF37" stroke="#D4AF37"/>
<path d="M272.562 473.022C235.511 473.022 212.144 463.339 202.461 443.972C200.356 439.761 199.303 435.972 199.303 432.604V0H243.511V428.183C243.511 440.393 245.826 449.866 250.458 456.602C255.51 462.918 260.562 466.286 265.615 466.707L272.562 467.97H292.139V473.022H272.562Z" fill="black"/>
<path d="M329.026 300.898C336.556 295.721 342.074 290.318 345.546 284.68C341.379 308.146 333.617 327.863 322.273 343.848C300.565 374.399 265.98 389.715 218.401 389.715H217.967L217.906 390.144L217.502 392.973L217.42 393.544H217.997C242.019 393.544 263.628 390.44 282.817 384.224C317.679 373.414 343.919 353.809 361.503 325.404C376.912 300.803 384.616 273.631 384.616 243.9C384.616 212.183 378.14 188.303 365.103 172.346C352.05 156.369 332.488 148.417 306.513 148.417C278.113 148.417 256.269 157.076 241.063 174.455C225.89 191.796 218.305 212.528 218.305 236.625C218.305 260.724 226.164 278.94 241.941 291.18L241.944 291.183C257.91 303.36 274.181 309.474 290.75 309.474C307.499 309.474 320.277 306.64 329.018 300.904L329.026 300.898ZM348.053 271.717L348.048 271.753V271.789C348.048 272.592 347.603 273.875 346.595 275.689C345.601 277.479 344.1 279.716 342.085 282.402L342.083 282.405C338.364 287.452 332.361 292.532 324.036 297.634L324.03 297.638C316.02 302.711 307.624 305.24 298.833 305.24C285.79 305.24 274.607 299.925 265.263 289.248C256.214 278.333 251.64 260.962 251.64 237.029C251.64 212.846 256.61 192.735 266.519 176.666C276.698 160.594 288.954 152.65 303.28 152.65C317.655 152.65 329.229 158.893 338.034 171.434L338.038 171.44C347.114 183.985 351.686 202.053 351.686 225.712C351.686 239.695 350.476 255.03 348.053 271.717Z" fill="#D4AF37" stroke="#D4AF37"/>
</svg>
